ply
format ascii 1.0
element vertex 33 
property float x
property float y
property float z
property uchar red
property uchar green
property uchar blue
end_header
-0.12 0.07 -0.33 0 63 0
0.01 0.02 -0.32 0 63 0
0.11 -0.01 -0.43 0 63 0
-0.25 -0.0 0.76 0 63 63
0.37 -0.1 -0.86 0 63 0
0.26 -0.18 -0.82 0 63 0
0.17 -0.15 -0.72 0 63 0
0.06 -0.24 -0.7 0 63 0
-0.09 0.03 0.15 0 63 0
-0.15 0.04 0.27 0 63 0
-0.08 -0.01 0.38 0 63 0
0.1 -0.08 0.25 0 63 0
0.23 -0.15 0.24 0 63 0
-0.23 0.11 0.54 0 63 0
-0.07 -0.09 0.61 0 63 0
-0.31 0.02 0.89 0 63 0
-0.27 0.16 0.93 0 63 0
-0.15 0.07 0.03 0 63 63
-0.1 0.06 -0.1 0 63 0
-0.18 0.09 -0.2 0 63 63
0.06 -0.0 -0.15 0 191 0
0.09 0.02 -0.56 0 63 63
0.18 -0.02 -0.66 0 63 0
0.29 0.06 -0.7 0 63 0
0.38 0.02 -0.79 0 63 0
0.31 0.22 -0.62 0 191 63
0.21 -0.07 -0.39 0 63 127
0.04 -0.07 0.38 0 63 63
0.03 -0.04 0.14 0 63 63
-0.13 0.01 0.51 0 63 63
-0.32 0.04 0.64 0 63 0
-0.11 -0.05 0.75 0 63 0
-0.38 0.25 0.89 0 63 127
