ply
format ascii 1.0
element vertex 33 
property float x
property float y
property float z
property uchar red
property uchar green
property uchar blue
end_header
-0.1 -0.34 -0.02 0 63 0
0.03 -0.31 0.03 0 63 0
0.13 -0.39 0.08 0 63 0
-0.26 0.68 -0.19 0 63 63
0.4 -0.77 0.23 0 63 0
0.29 -0.73 0.3 0 63 0
0.2 -0.65 0.25 0 63 0
0.08 -0.62 0.33 0 63 0
-0.11 0.12 -0.03 0 63 0
-0.17 0.23 -0.08 0 63 0
-0.11 0.35 -0.05 0 63 0
0.06 0.25 0.05 0 63 0
0.18 0.26 0.12 0 63 0
-0.3 0.46 -0.11 0 63 0
-0.08 0.57 -0.1 0 63 0
-0.34 0.75 -0.28 0 63 0
-0.26 0.87 -0.31 0 63 0
-0.16 -0.0 -0.05 0 63 63
-0.1 -0.12 -0.02 0 63 0
-0.16 -0.23 -0.05 0 63 63
0.05 -0.14 0.04 0 191 0
0.12 -0.52 0.08 0 63 63
0.21 -0.6 0.13 0 63 0
0.32 -0.64 0.06 0 63 0
0.41 -0.72 0.11 0 63 0
0.34 -0.58 -0.1 0 191 63
0.23 -0.34 0.12 0 63 127
-0.0 0.36 0.01 0 63 63
0.0 0.14 0.03 0 63 63
-0.16 0.46 -0.09 0 63 63
-0.34 0.6 -0.09 0 63 0
-0.12 0.66 -0.2 0 63 0
-0.27 0.94 -0.19 0 63 127
