ply
format ascii 1.0
element vertex 33 
property float x
property float y
property float z
property uchar red
property uchar green
property uchar blue
end_header
-15.975 -31.831 16.695 0 63 0
-14.672 -32.339 16.763 0 63 0
-13.684 -32.7 15.707 0 63 0
-17.225 -32.619 27.462 0 63 63
-11.118 -33.582 11.438 0 63 0
-12.184 -34.402 11.797 0 63 0
-13.118 -34.02 12.775 0 63 0
-14.232 -34.996 13.069 0 63 0
-15.646 -32.31 21.402 0 63 0
-16.249 -32.133 22.63 0 63 0
-15.568 -32.621 23.75 0 63 0
-13.81 -33.399 22.475 0 63 0
-12.467 -34.087 22.375 0 63 0
-17.031 -31.493 25.312 0 63 0
-15.495 -33.482 25.988 0 63 0
-17.88 -32.405 28.748 0 63 0
-17.466 -31.002 29.167 0 63 0
-16.258 -31.872 20.247 0 63 63
-15.774 -32.006 18.975 0 63 0
-16.547 -31.661 17.928 0 63 63
-14.19 -32.602 18.441 0 191 0
-13.92 -32.419 14.41 0 63 63
-13.026 -32.801 13.433 0 63 0
-11.943 -31.987 13.066 0 63 0
-11.005 -32.354 12.088 0 63 0
-11.718 -30.393 13.843 0 191 63
-12.664 -33.242 16.093 0 63 127
-14.377 -33.238 23.679 0 63 63
-14.454 -32.936 21.376 0 63 63
-16.049 -32.509 25.021 0 63 63
-17.966 -32.176 26.279 0 63 0
-15.847 -33.094 27.416 0 63 0
-18.548 -30.123 28.8 0 63 127
