ply
format ascii 1.0
element vertex 38 
property float x
property float y
property float z
property uchar red
property uchar green
property uchar blue
end_header
0.1 -0.07 -0.16 0 63 127
0.04 -0.0 -0.2 0 63 0
0.06 0.06 -0.29 0 63 63
0.14 0.06 -0.37 0 63 0
0.16 0.15 -0.43 0 63 0
0.25 0.16 -0.51 0 63 0
0.31 0.07 -0.52 0 63 0
0.39 0.08 -0.59 0 63 127
0.41 0.01 -0.68 0 63 0
0.52 -0.02 -0.69 0 63 0
0.55 -0.09 -0.77 0 63 0
0.46 -0.13 -0.85 0 63 0
0.35 -0.1 -0.83 0 63 0
0.33 -0.03 -0.75 0 63 0
0.3 -0.03 -0.46 0 63 0
0.21 -0.04 -0.38 0 63 0
-0.06 0.02 -0.13 0 63 0
-0.16 0.07 -0.16 0 63 0
-0.24 0.08 -0.08 0 63 63
-0.19 0.04 0.02 0 63 0
-0.06 -0.01 -0.0 0 191 0
-0.24 0.06 0.12 0 63 63
-0.2 0.02 0.22 0 63 0
-0.25 0.05 0.32 0 63 0
-0.2 0.01 0.42 0 63 0
-0.1 -0.04 0.42 0 63 63
-0.05 -0.05 0.32 0 63 0
0.06 -0.11 0.32 0 63 0
-0.09 -0.03 0.22 0 63 63
-0.24 0.04 0.53 0 63 63
-0.34 0.1 0.56 0 63 0
-0.41 0.02 0.63 0 63 0
-0.35 -0.02 0.73 0 63 63
-0.24 -0.06 0.7 0 63 0
-0.17 0.02 0.63 0 63 0
-0.41 -0.1 0.8 0 63 0
-0.39 -0.09 0.92 0 63 0
-0.28 -0.13 0.95 0 63 127
